{"title":"Mom S01E01 - 720p x264 [MKV,AC3,5.1] Ehhhh","uid":8958636,"size":243419480,"categoryP":"video","categoryS":"hd___tv_shows","magnet":"?xt=urn:btih:88fe08828d53ba806f569a9c7b410af1802b0b38&amp;dn=Mom+S01E01+-+720p+x264+%5BMKV%2CAC3%2C5.1%5D+Ehhhh&amp;tr=udp%3A%2F%2Ftracker.openbittorrent.com%3A80&amp;tr=udp%3A%2F%2Fopen.demonii.com%3A1337&amp;tr=udp%3A%2F%2Ftracker.coppersurfer.tk%3A6969&amp;tr=udp%3A%2F%2Fexodus.desync.com%3A6969","seeders":0,"leechers":1,"uploader":"Ehhhhtozebec","files":-1,"time":1380054326,"description":"image image\n\nIMDb Info\nTV Rage Info\nWikipedia Info\n\nMom is a comedy from executive producer Chuck Lorre starring Anna Faris as a newly sober single mom raising two children in a world full of temptations and pitfalls, and multiple Emmy Award winner Allison Janney as her critical, estranged mother. Christy is a waitress at a posh Napa Valley establishment who is four months clean and doing her best to be a good mom and overcome a history of questionable choices. Her sobriety is tested when Bonnie, her recovering alcoholic mom, reappears chock-full of passive-aggressive insights into Christy's many mistakes. Bonnie joins Christy's already complicated circle of relationships: her handsome, married boss - and lover - Gabriel; the restaurant's hot-tempered chef, Rudy; her pretty, 16-going-on-25-year-old daughter, Violet; her sweet but overly honest son, Roscoe; her irresponsible ex-husband and Roscoe's father, Baxter; and Violet's clueless boyfriend, Luke. Christy tries to remain positive as she pursues her new path in life, but she faces an uphill battle, surrounded by a dubious support system - and a copious amount of dysfunction.\n\nCast\n\nAnna Faris as Christy\nAllison Janney as Bonnie\nSadie Calvano as Violet\nBlake Garrett Rosenthal as Roscoe\nNate Corddry as Gabriel\nSpencer Daniels as Luke\nMatt Jones as Baxter\nFrench Stewart as Rudy\n\n\n1x01 -- Pilot (Sep/23/2013)\n\nChristy, a newly sober single mother, is trying to get her life together. She is challenged when her estranged mother, Bonnie, comes back into the picture.\n\nimage\n\nGeneral\nFormat : Matroska\nFormat version : Version 4 / Version 2\nFile size : 226 MiB\nDuration : 22mn 52s\nOverall bit rate : 1 381 Kbps\nEncoded date : UTC 2013-09-24 05:51:41\nWriting application : mkvmerge v6.2.0 ('Promised Land') built on Apr 28 2013 12:22:01\nWriting library : libebml v1.3.0 + libmatroska v1.4.0\n\nVideo\nID : 1\nFormat : AVC\nFormat/Info : Advanced Video Codec\nFormat profile : &lt;a class=&quot;__cf_email__&quot; href=&quot;/cdn-cgi/l/email-protection&quot; data-cfemail=&quot;1951707e7159552d3728&quot;&gt;[email&amp;#160;protected]&lt;/a&gt;&lt;script cf-hash='f9e31' type=&quot;text/javascript&quot;&gt;\n/* &lt;![CDATA[ */!function(){try{var t=&quot;currentScript&quot;in document?document.currentScript:function(){for(var t=document.getElementsByTagName(&quot;script&quot;),e=t.length;e--;)if(t[e].getAttribute(&quot;cf-hash&quot;))return t[e]}();if(t&amp;&amp;t.previousSibling){var e,r,n,i,c=t.previousSibling,a=c.getAttribute(&quot;data-cfemail&quot;);if(a){for(e=&quot;&quot;,r=parseInt(a.substr(0,2),16),n=2;a.length-n;n+=2)i=parseInt(a.substr(n,2),16)^r,e+=String.fromCharCode(i);e=document.createTextNode(e),c.parentNode.replaceChild(e,c)}}}catch(u){}}();/* ]]&gt; */&lt;/script&gt;\nFormat settings, CABAC : Yes\nFormat settings, ReFrames : 14 frames\nCodec ID : V_MPEG4/ISO/AVC\nDuration : 22mn 51s\nBit rate : 1 010 Kbps\nWidth : 1 280 pixels\nHeight : 720 pixels\nDisplay aspect ratio : 16:9\nFrame rate mode : Constant\nFrame rate : 23.976 fps\nColor space : YUV\nChroma subsampling : 4:2:0\nBit depth : 8 bits\nScan type : Progressive\nBits/(Pixel*Frame) : 0.046\nStream size : 159 MiB (70%)\nWriting library : x264 core 138 r2359+704+48 3f879a0 tMod [8-bit@all X86]\nDefault : Yes\nForced : No\n\nAudio\nID : 2\nFormat : AC-3\nFormat/Info : Audio Coding 3\nMode extension : CM (complete main)\nFormat settings, Endianness : Big\nCodec ID : A_AC3\nDuration : 22mn 52s\nBit rate mode : Constant\nBit rate : 384 Kbps\nChannel(s) : 6 channels\nChannel positions : Front: L C R, Side: L R, LFE\nSampling rate : 48.0 KHz\nBit depth : 16 bits\nCompression mode : Lossy\nStream size : 62.8 MiB (28%)\nDefault : Yes\nForced : No\n\n","torrent":{"xt":"urn:btih:88fe08828d53ba806f569a9c7b410af1802b0b38","amp;dn":"Mom+S01E01+-+720p+x264+%5BMKV%2CAC3%2C5.1%5D+Ehhhh","amp;tr":["udp%3A%2F%2Ftracker.openbittorrent.com%3A80","udp%3A%2F%2Fopen.demonii.com%3A1337","udp%3A%2F%2Ftracker.coppersurfer.tk%3A6969","udp%3A%2F%2Fexodus.desync.com%3A6969"],"infoHash":"88fe08828d53ba806f569a9c7b410af1802b0b38","infoHashBuffer":{"type":"Buffer","data":[136,254,8,130,141,83,186,128,111,86,154,156,123,65,10,241,128,43,11,56]},"announce":[],"urlList":[]}}